<svg width="48" height="48" viewBox="0 0 48 48" fill="none" xmlns="http://www.w3.org/2000/svg">
<mask id="mask0_114_318" style="mask-type:alpha" maskUnits="userSpaceOnUse" x="0" y="0" width="48" height="48">
<rect width="48" height="48" fill="#D9D9D9"/>
</mask>
<g mask="url(#mask0_114_318)">
<path d="M3.41035 27.3168C2.59835 25.9784 1.99365 24.6256 1.59625 23.2585C1.19875 21.8914 1 20.5386 1 19.2001C1 15.8019 2.18377 12.919 4.5513 10.5515C6.91883 8.18395 9.80173 7.00018 13.2 7.00018C15.2615 7.00018 17.2271 7.48012 19.0968 8.43998C20.9664 9.39982 22.6008 10.7477 24 12.4836C25.3992 10.7477 27.0336 9.39982 28.9032 8.43998C30.7729 7.48012 32.7385 7.00018 34.8 7.00018C38.1983 7.00018 41.0812 8.18395 43.4487 10.5515C45.8162 12.919 47 15.8019 47 19.2001C47 20.5044 46.8012 21.8324 46.4038 23.1841C46.0063 24.5358 45.4016 25.9002 44.5897 27.2771C44.3158 26.9356 44.0042 26.6384 43.6548 26.3857C43.3054 26.133 42.9367 25.9198 42.5487 25.7463C43.1914 24.6019 43.6752 23.488 44 22.4046C44.3248 21.3213 44.4872 20.2531 44.4872 19.2001C44.4872 16.5001 43.5477 14.2106 41.6686 12.3315C39.7895 10.4525 37.5 9.51293 34.8 9.51293C32.8445 9.51293 31.0028 10.0967 29.275 11.2642C27.5472 12.4317 25.7889 14.142 24 16.395C22.2111 14.1351 20.4528 12.4232 18.725 11.2591C16.9972 10.095 15.1555 9.51293 13.2 9.51293C10.5 9.51293 8.21047 10.4525 6.3314 12.3315C4.45233 14.2106 3.5128 16.5001 3.5128 19.2001C3.5128 20.2702 3.6752 21.3523 4 22.4463C4.3248 23.5404 4.80217 24.6468 5.4321 25.7656C5.0441 25.9519 4.67915 26.1739 4.33725 26.4316C3.99538 26.6893 3.68642 26.9844 3.41035 27.3168ZM1.0001 43.0385V40.8437C1.0001 39.5779 1.67587 38.5418 3.0274 37.7354C4.37897 36.929 6.12858 36.5258 8.27625 36.5258C8.68355 36.5258 9.06755 36.5373 9.42825 36.5604C9.78892 36.5835 10.1355 36.6284 10.468 36.695C10.1902 37.2266 9.97865 37.7833 9.83335 38.365C9.68808 38.9468 9.61545 39.5642 9.61545 40.2174V43.0385H1.0001ZM13.0001 43.0385V40.2886C13.0001 38.3783 14.0165 36.8463 16.0495 35.6924C18.0824 34.5386 20.7343 33.9617 24.0053 33.9617C27.3069 33.9617 29.9647 34.5386 31.9788 35.6924C33.9929 36.8463 35 38.3783 35 40.2886V43.0385H13.0001ZM38.3846 43.0385V40.2174C38.3846 39.5642 38.3203 38.9468 38.1917 38.365C38.063 37.7833 37.859 37.2266 37.5795 36.695C37.9205 36.6284 38.2708 36.5835 38.6305 36.5604C38.9901 36.5373 39.3612 36.5258 39.7436 36.5258C41.9166 36.5258 43.6693 36.929 45.0016 37.7354C46.3338 38.5418 47 39.5779 47 40.8437V43.0385H38.3846ZM23.9977 36.4744C21.5454 36.4744 19.5318 36.8223 17.9571 37.518C16.3822 38.2138 15.5803 39.1031 15.5513 40.186V40.5258H32.459V40.1655C32.4231 39.0963 31.6261 38.2138 30.068 37.518C28.5099 36.8223 26.4864 36.4744 23.9977 36.4744ZM8.2757 34.8271C7.3976 34.8271 6.64817 34.5167 6.0274 33.8959C5.40663 33.2751 5.09625 32.5257 5.09625 31.6476C5.09625 30.7707 5.40663 30.0248 6.0274 29.4098C6.64817 28.7949 7.3976 28.4874 8.2757 28.4874C9.1526 28.4874 9.90173 28.7949 10.5231 29.4098C11.1444 30.0248 11.4551 30.7707 11.4551 31.6476C11.4551 32.5257 11.1444 33.2751 10.5231 33.8959C9.90173 34.5167 9.1526 34.8271 8.2757 34.8271ZM39.7436 34.8271C38.8735 34.8271 38.1261 34.5167 37.5013 33.8959C36.8765 33.2751 36.5641 32.5257 36.5641 31.6476C36.5641 30.7707 36.8765 30.0248 37.5013 29.4098C38.1261 28.7949 38.8747 28.4874 39.7473 28.4874C40.6345 28.4874 41.3856 28.7949 42.0006 29.4098C42.6155 30.0248 42.923 30.7707 42.923 31.6476C42.923 32.5257 42.6163 33.2751 42.003 33.8959C41.3896 34.5167 40.6365 34.8271 39.7436 34.8271ZM24.0068 32.4617C22.5664 32.4617 21.3398 31.9569 20.327 30.9473C19.3142 29.9377 18.8078 28.7117 18.8078 27.2694C18.8078 25.7983 19.3125 24.5652 20.3222 23.57C21.3318 22.5748 22.5577 22.0772 24 22.0772C25.4711 22.0772 26.7043 22.5742 27.6995 23.568C28.6947 24.5619 29.1923 25.7935 29.1923 27.2627C29.1923 28.7031 28.6953 29.9297 27.7015 30.9425C26.7076 31.9553 25.476 32.4617 24.0068 32.4617ZM24 24.5899C23.2598 24.5899 22.6282 24.8441 22.1051 25.3523C21.582 25.8605 21.3205 26.4996 21.3205 27.2694C21.3205 28.0096 21.582 28.6413 22.1051 29.1643C22.6282 29.6874 23.263 29.949 24.0096 29.949C24.7699 29.949 25.4049 29.6874 25.9148 29.1643C26.4246 28.6413 26.6795 28.0064 26.6795 27.2598C26.6795 26.4996 26.4254 25.8645 25.9172 25.3547C25.4089 24.8449 24.7699 24.5899 24 24.5899Z" fill="#E93A2B"/>
</g>
</svg>
