<svg width="40" height="40" viewBox="0 0 40 40" fill="none" xmlns="http://www.w3.org/2000/svg">
<circle cx="20" cy="20" r="20" fill="#F8D5CD"/>
<path d="M20 20.0001C20.55 20.0001 21.0208 19.8043 21.4125 19.4126C21.8042 19.021 22 18.5501 22 18.0001C22 17.4501 21.8042 16.9793 21.4125 16.5876C21.0208 16.196 20.55 16.0001 20 16.0001C19.45 16.0001 18.9792 16.196 18.5875 16.5876C18.1958 16.9793 18 17.4501 18 18.0001C18 18.5501 18.1958 19.021 18.5875 19.4126C18.9792 19.8043 19.45 20.0001 20 20.0001ZM20 27.3501C22.0333 25.4835 23.5417 23.7876 24.525 22.2626C25.5083 20.7376 26 19.3835 26 18.2001C26 16.3835 25.4208 14.896 24.2625 13.7376C23.1042 12.5793 21.6833 12.0001 20 12.0001C18.3167 12.0001 16.8958 12.5793 15.7375 13.7376C14.5792 14.896 14 16.3835 14 18.2001C14 19.3835 14.4917 20.7376 15.475 22.2626C16.4583 23.7876 17.9667 25.4835 20 27.3501ZM20 30.0001C17.3167 27.7168 15.3125 25.596 13.9875 23.6376C12.6625 21.6793 12 19.8668 12 18.2001C12 15.7001 12.8042 13.7085 14.4125 12.2251C16.0208 10.7418 17.8833 10.0001 20 10.0001C22.1167 10.0001 23.9792 10.7418 25.5875 12.2251C27.1958 13.7085 28 15.7001 28 18.2001C28 19.8668 27.3375 21.6793 26.0125 23.6376C24.6875 25.596 22.6833 27.7168 20 30.0001Z" fill="#E93325"/>
</svg>
