<svg width="40" height="40" viewBox="0 0 40 40" fill="none" xmlns="http://www.w3.org/2000/svg">
<g id="Group 26086214">
<circle id="Ellipse 7" cx="20" cy="20" r="20" fill="#F8D5CD"/>
<g id="call">
<path id="call_2" d="M27.95 28.9999C25.8667 28.9999 23.8083 28.5457 21.775 27.6374C19.7417 26.729 17.8917 25.4415 16.225 23.7749C14.5583 22.1082 13.2708 20.2582 12.3625 18.2249C11.4542 16.1915 11 14.1332 11 12.0499C11 11.7499 11.1 11.4999 11.3 11.2999C11.5 11.0999 11.75 10.9999 12.05 10.9999H16.1C16.3333 10.9999 16.5417 11.079 16.725 11.2374C16.9083 11.3957 17.0167 11.5832 17.05 11.7999L17.7 15.2999C17.7333 15.5665 17.725 15.7915 17.675 15.9749C17.625 16.1582 17.5333 16.3165 17.4 16.4499L14.975 18.8999C15.3083 19.5165 15.7042 20.1124 16.1625 20.6874C16.6208 21.2624 17.125 21.8165 17.675 22.3499C18.1917 22.8665 18.7333 23.3457 19.3 23.7874C19.8667 24.229 20.4667 24.6332 21.1 24.9999L23.45 22.6499C23.6 22.4999 23.7958 22.3874 24.0375 22.3124C24.2792 22.2374 24.5167 22.2165 24.75 22.2499L28.2 22.9499C28.4333 23.0165 28.625 23.1374 28.775 23.3124C28.925 23.4874 29 23.6832 29 23.8999V27.9499C29 28.2499 28.9 28.4999 28.7 28.6999C28.5 28.8999 28.25 28.9999 27.95 28.9999ZM14.025 16.9999L15.675 15.3499L15.25 12.9999H13.025C13.1083 13.6832 13.225 14.3582 13.375 15.0249C13.525 15.6915 13.7417 16.3499 14.025 16.9999ZM22.975 25.9499C23.625 26.2332 24.2875 26.4582 24.9625 26.6249C25.6375 26.7915 26.3167 26.8999 27 26.9499V24.7499L24.65 24.2749L22.975 25.9499Z" fill="#E93325"/>
</g>
</g>
</svg>
