<svg width="48" height="48" viewBox="0 0 48 48" fill="none" xmlns="http://www.w3.org/2000/svg">
<mask id="mask0_114_311" style="mask-type:alpha" maskUnits="userSpaceOnUse" x="0" y="0" width="48" height="48">
<rect width="48" height="48" fill="#D9D9D9"/>
</mask>
<g mask="url(#mask0_114_311)">
<path d="M32 21.769C32.4897 21.769 32.907 21.5965 33.2519 21.2517C33.5967 20.9068 33.7692 20.4895 33.7692 19.9998C33.7692 19.51 33.5967 19.0927 33.2519 18.7479C32.907 18.403 32.4897 18.2306 32 18.2306C31.5102 18.2306 31.0929 18.403 30.7481 18.7479C30.4032 19.0927 30.2308 19.51 30.2308 19.9998C30.2308 20.4895 30.4032 20.9068 30.7481 21.2517C31.0929 21.5965 31.5102 21.769 32 21.769ZM16 17.0126H26V14.4998H16V17.0126ZM9.75 40.9997C8.6936 37.3536 7.63783 33.7254 6.5827 30.1151C5.52757 26.5049 5 22.7998 5 18.9998C5 16.2152 5.97052 13.8524 7.91155 11.9114C9.85255 9.97034 12.2154 8.99982 15 8.99982H25.5C26.4154 7.79728 27.5134 6.82999 28.7942 6.09792C30.075 5.36585 31.4769 4.99982 33 4.99982C33.5512 4.99982 34.0224 5.19533 34.4134 5.58637C34.8044 5.97737 34.9999 6.4485 34.9999 6.99977C34.9999 7.13567 34.9813 7.27157 34.9441 7.40747C34.9069 7.54333 34.8678 7.66897 34.8268 7.78437C34.6422 8.26644 34.4852 8.76003 34.3557 9.26517C34.2262 9.7703 34.1153 10.2806 34.023 10.796L39.2269 15.9998H42.9999V28.219L37.5422 30.0113L34.2499 40.9997H25V36.9997H18.9999V40.9997H9.75ZM11.641 38.487H16.4871V34.487H27.5127V38.487H32.3718L35.4923 28.0921L40.4872 26.3882V18.5126H38.1897L31.4872 11.81C31.5008 11.0579 31.5741 10.3329 31.707 9.63502C31.8399 8.93715 32.0094 8.2395 32.2154 7.54207C31.1085 7.8361 30.0957 8.31452 29.1769 8.97732C28.2581 9.64015 27.5431 10.4852 27.032 11.5126H15C12.9252 11.5126 11.1587 12.2418 9.7003 13.7001C8.24193 15.1585 7.51275 16.925 7.51275 18.9998C7.51275 22.3517 7.97857 25.6266 8.9102 28.8246C9.84183 32.0226 10.7521 35.2434 11.641 38.487Z" fill="#E93A2B"/>
</g>
</svg>
