<svg xmlns="http://www.w3.org/2000/svg" xmlns:xlink="http://www.w3.org/1999/xlink" width="500" zoomAndPan="magnify" viewBox="0 0 375 218.249992" height="291" preserveAspectRatio="xMidYMid meet" version="1.0"><path fill="#f58634" d="M 296.074219 99.101562 C 298.300781 92.429688 300.523438 86.359375 301.636719 83.539062 C 304.628906 76.785156 308.136719 70.285156 312.15625 64.128906 C 316.007812 58.570312 321.054688 51.390625 327.726562 44.71875 C 332.175781 40.273438 336.621094 36.941406 338.847656 38.050781 C 341.585938 39.761719 334.996094 50.789062 332.773438 54.125 C 325.246094 67.292969 316.179688 79.347656 305.570312 90.207031 C 303.859375 91.832031 301.722656 94.054688 298.386719 96.875 L 296.761719 98.585938 L 296.074219 99.101562 M 151.765625 102.433594 C 160.664062 87.984375 165.109375 79.175781 174.519531 65.839844 L 194.535156 66.351562 L 208.992188 43.609375 L 187.863281 43.609375 C 191.199219 38.648438 191.714844 37.539062 194.535156 34.203125 C 196.164062 30.867188 198.386719 29.246094 198.386719 25.3125 C 197.875 17.019531 182.816406 15.308594 178.371094 21.378906 C 177.257812 22.488281 175.632812 25.3125 173.921875 28.558594 C 170.585938 34.117188 168.960938 37.453125 163.914062 43.523438 L 147.832031 43.523438 L 132.859375 66.351562 L 150.652344 65.839844 L 128.414062 102.433594 C 113.957031 129.027344 81.195312 136.292969 100.097656 102.433594 C 105.058594 94.140625 111.730469 83.539062 114.554688 77.46875 L 92.914062 77.46875 C 82.90625 92.945312 69.046875 126.203125 49.628906 125.179688 C 40.21875 124.066406 41.332031 115.175781 42.957031 109.617188 C 49.03125 91.320312 82.390625 51.390625 102.324219 41.898438 C 109.507812 38.5625 111.21875 45.234375 107.285156 56.347656 C 102.324219 67.464844 100.613281 71.3125 102.324219 72.421875 C 106.171875 75.160156 133.972656 40.789062 127.300781 22.488281 C 121.226562 1.96875 67.933594 36.339844 38.507812 78.578125 C 30.382812 89.523438 24.480469 101.921875 21.3125 115.175781 C 13.53125 145.101562 39.621094 153.480469 72.382812 125.179688 C 67.933594 152.878906 101.808594 144.074219 123.453125 125.179688 C 125.078125 152.878906 161.175781 143.476562 176.144531 125.179688 C 179.480469 151.769531 217.804688 144.074219 231.664062 125.179688 C 231.664062 139.628906 238.847656 142.960938 248.855469 142.363281 L 252.191406 142.363281 C 263.3125 140.738281 273.835938 134.070312 282.132812 125.179688 C 282.644531 132.957031 286.582031 141.253906 295.476562 142.363281 C 306.597656 144.074219 314.894531 132.359375 320.457031 123.46875 C 322.679688 119.621094 324.304688 115.6875 317.117188 120.730469 C 312.15625 124.066406 304.886719 127.914062 299.925781 125.691406 C 295.476562 123.46875 294.964844 118.507812 294.964844 117.398438 C 311.046875 104.65625 317.203125 99.613281 333.800781 81.316406 C 347.65625 66.351562 354.328125 47.457031 354.328125 31.894531 C 354.328125 20.265625 349.367188 16.933594 342.695312 18.042969 C 321.566406 20.78125 302.746094 48.566406 292.140625 68.574219 C 286.066406 80.203125 281.019531 97.390625 281.019531 111.328125 L 276.058594 115.175781 C 267.761719 121.246094 259.378906 126.289062 253.816406 125.691406 C 236.023438 125.179688 261.601562 84.050781 265.453125 77.382812 L 245.433594 77.382812 C 234.914062 96.277344 226.53125 129.539062 202.664062 124.578125 C 193.765625 121.84375 198.214844 109.617188 203.777344 98.5 L 217.632812 77.382812 L 195.992188 77.382812 C 191.542969 84.5625 182.132812 100.722656 177.085938 107.308594 C 160.664062 133.472656 135.683594 129.027344 151.765625 102.433594 Z M 151.765625 102.433594 " fill-opacity="1" fill-rule="evenodd"/><path fill="#00a859" d="M 51.851562 208.371094 C 55.1875 210.59375 57.414062 211.707031 59.636719 211.707031 C 62.375 211.707031 65.710938 209.996094 70.757812 207.859375 C 146.292969 177.933594 233.972656 171.777344 313.867188 186.738281 C 325.503906 189.476562 335.511719 193.410156 336.621094 190.074219 C 337.136719 187.851562 333.285156 186.226562 316.605469 178.445312 C 262.714844 154.078125 151.679688 159.035156 77.34375 171.777344 C 61.777344 174.511719 45.179688 177.847656 30.125 182.890625 C 24.050781 185.113281 20.714844 186.738281 27.902344 191.785156 C 33.972656 195.632812 40.648438 201.1875 47.320312 205.636719 C 48.515625 206.746094 50.140625 207.261719 51.851562 208.371094 " fill-opacity="1" fill-rule="evenodd"/></svg>